inDegrees=yes
name=ik_MT_2026-09-05_11h40_01210270-000-000_orientations_dedrift
DataType=double
version=3
OpenSimVersion=4.5
endheader
time	pelvis_tilt	pelvis_list	pelvis_rotation	pelvis_tx	pelvis_ty	pelvis_tz	hip_flexion_r	hip_adduction_r	hip_rotation_r	knee_angle_r	knee_angle_r_beta	ankle_angle_r	subtalar_angle_r	mtp_angle_r	hip_flexion_l	hip_adduction_l	hip_rotation_l	knee_angle_l	knee_angle_l_beta	ankle_angle_l	subtalar_angle_l	mtp_angle_l	lumbar_extension	lumbar_bending	lumbar_rotation	arm_flex_r	arm_add_r	arm_rot_r	elbow_flex_r	pro_sup_r	wrist_flex_r	wrist_dev_r	arm_flex_l	arm_add_l	arm_rot_l	elbow_flex_l	pro_sup_l	wrist_flex_l	wrist_dev_l
0	0.07439634268122654	-0.03621831231813018	153.2576983821645	0	0.9399999999999999	0	0.08601541429155754	0.006566760589093096	0.004956888009028931	-0.01381681844362082	-0.0002411489739914619	-0.01793568055673922	0	0	0.09912338072012081	0.004616816920088514	-0.003779793284622616	0.0006556695539074314	1.144359252076713e-05	-0.02455486743840138	0	0	0.1099930500977873	0.008580194175224107	0.00550260273425939	-0.4449435754779505	-0.1011534071442504	-0.01021601316060297	0.8485689692668476	16.53723962534507	0	0	-0.4465586053598657	-0.08932823219104111	-0.007049759871116878	0.8513382144573572	16.53723962534507	0	0
0.025	0.04425240880285585	-0.03570991799620377	153.2594578197233	0	0.9399999999999999	0	0.07398429473181364	-0.0207565780072106	-0.005172841880059927	-0.01215039916522132	-0.0002120644708646826	-0.03971416378168507	0	0	0.05384667678078368	0.02049911358877074	-0.02797815516163813	-0.02307745942509714	-0.0004027776499633429	-0.03216178262625933	0	0	0.06423036920045405	0.01214158677799262	-0.002573942987463358	-0.4056446532864703	-0.1095199722423648	-0.07612900210803314	0.859601164193773	20.60592452442728	0	0	-0.4146498473940928	-0.1075390395357372	-0.005439802651304155	0.8327521623298537	20.60592452442728	0	0
0.05	0.08160028875496551	-0.04722317284638086	153.2535578706062	0	0.9399999999999999	0	0.08318969950866706	-0.02578013512572271	-7.025384277321781e-05	-0.03754044178461598	-0.0006552043117948048	-0.004006380899845508	0	0	0.05375598691924988	0.04667090496702896	-0.02379900328739188	-0.06639304628878523	-0.001158777258168304	0.003824887225662149	0	0	0.166727462490354	0.03396716809768717	0.0112625141826089	-0.4613350910967033	-0.106068362867176	-0.1365459541869559	0.8791131701701844	24.36615375667364	0	0	-0.487286533277602	-0.1415936949266426	0.02252723548357417	0.825796980610075	24.36615375667364	0	0
0.075	0.07234636950330961	-0.05788224894858614	153.2488408632032	0	0.9399999999999999	0	0.1201092638439289	-0.04227346857314702	-0.04269687165104775	-0.01912000785731294	-0.0003337070901172969	-0.05804356231360239	0	0	0.0627955264277613	0.03763719069426309	-0.05650809851840197	-0.07683098646286092	-0.001340953681332115	-0.05550490294605447	0	0	0.2165338683321668	0.01569584370815548	0.02738957013701118	-0.497738909940136	-0.08053117502272851	-0.1500572349326733	0.8678802884132036	27.69646050779549	0	0	-0.5309505217243237	-0.1454387313354671	0.007502959111024143	0.8253915755022676	27.69646050779549	0	0
0.1	0.07520621853508279	-0.04982646859631819	153.2218232237148	0	0.9399999999999999	0	0.1325265967104374	-0.05150357882561636	-0.02843865341282618	-0.01310473902905276	-0.0002287208436715755	-0.05850470437849468	0	0	0.05403265569141395	0.05836964575177792	-0.06006594829228849	-0.09220757523548903	-0.001609325783139669	-0.0594064201720979	0	0	0.3018481612226679	0.02833249542046885	0.08473990359659486	-0.5691512324322789	-0.07032416590258291	-0.1945018211561536	0.8488752914818486	30.76401940502973	0	0	-0.6008455778051714	-0.1787301146748556	0.03552982850594439	0.7970675707470449	30.76401940502973	0	0
0.125	0.06608488214967136	-0.05264427616856283	153.2045265869504	0	0.9399999999999999	0	0.1464121897017467	-0.07304266031553697	-0.0514556393229034	0.004998984659743787	8.724874156921752e-05	-0.06972228228748728	0	0	0.05484400919400488	0.07639137696470155	-0.08042472447466183	-0.09241383330281995	-0.001612925665523394	-0.07063961525115867	0	0	0.2935396557691245	0.03995905260806486	0.1128471000484102	-0.5607007843719664	-0.08455319794820168	-0.2235515772901362	0.8560826799417499	32.84623997578158	0	0	-0.59116171308681	-0.1989702517905189	-0.02323440160092997	0.7987024158910218	32.84623997578158	0	0
0.15	0.07037483453784493	-0.06176679233982008	153.1924730453531	0	0.9399999999999999	0	0.169481820258728	-0.06939448254557332	-0.03540193611514456	0.02193488891086877	0.0003828360325538531	-0.07343534267380777	0	0	0.07564732495118542	0.08206208452268525	-0.09214386752894274	-0.09111759106254033	-0.001590301970527087	-0.0737243275976497	0	0	0.3466775435792186	0.04202451692781153	0.1486289204394137	-0.6153813419113223	-0.09042510934893612	-0.2923149238320409	0.8524894597857418	34.61809345830901	0	0	-0.6310373252897551	-0.2066826439116835	-0.047293569112752	0.7959676050561106	34.61809345830901	0	0
0.175	0.1097698145722842	-0.07145079845173839	153.1806826109355	0	0.9399999999999999	0	0.185113725321632	-0.06320785893836446	-0.0195227609622108	0.001824005160012169	3.183489561557837e-05	-0.03077488750345439	0	0	0.08354445263918754	0.08516205719431216	-0.08919571505021794	-0.119951922002355	-0.002093555983036524	-0.03451448104347312	0	0	0.4928557376918218	0.05446873559520732	0.176735963225458	-0.7437287447642081	-0.09337729963652935	-0.3425131209125603	0.8628937270714339	36.13512532988854	0	0	-0.7531323256992525	-0.2263253642303706	-0.1548699017064262	0.8110963570590527	36.13512532988854	0	0
